<svg xmlns="http://www.w3.org/2000/svg" width="400" height="400" id="credit-card"><path fill="#F2F2F2" d="M341.672 268.804c0 8.284-6.716 15-15 15H73.328c-8.284 0-15-6.716-15-15V122c0-8.284 6.716-15 15-15h253.344c8.284 0 15 6.716 15 15v146.804z"></path><path fill="#0B4870" d="M58.328 145h283.344v43H58.328z"></path><path fill="#D3D3D3" d="M134.422 256.448c0 4.58-3.718 8.297-8.298 8.297H81.875a8.3 8.3 0 0 1-8.297-8.297c0-2.29.938-4.364 2.439-5.866s3.576-2.431 5.857-2.431h44.249c4.581 0 8.299 3.717 8.299 8.297zm70 0c0 4.58-3.718 8.297-8.298 8.297h-44.249a8.3 8.3 0 0 1-8.297-8.297c0-2.29.938-4.364 2.439-5.866s3.576-2.431 5.857-2.431h44.249c4.581 0 8.299 3.717 8.299 8.297z"></path><circle cx="302.688" cy="242.745" r="22" fill="#FFBE55"></circle><circle cx="272" cy="242.745" r="22" fill="#2A94F4"></circle></svg>